<svg width="71" height="71" fill="none" xmlns="http://www.w3.org/2000/svg"><g filter="url(#filter0_d)"><circle cx="35.4" cy="22.381" r="16.8" fill="#F53838"/></g><path d="M35.4 5.58c-9.278 0-16.8 7.522-16.8 16.8 0 9.28 7.521 16.8 16.8 16.8s16.8-7.52 16.8-16.8c0-9.278-7.522-16.8-16.8-16.8zm6.834 13.763c.007.143.008.287.008.427 0 4.375-3.326 9.416-9.413 9.416a9.336 9.336 0 01-5.071-1.487 6.6 6.6 0 00.789.044c1.55 0 2.977-.527 4.109-1.416a3.316 3.316 0 01-3.09-2.296 3.325 3.325 0 001.492-.058 3.311 3.311 0 01-2.654-3.244v-.04a3.32 3.32 0 001.5.414 3.308 3.308 0 01-1.024-4.42 9.407 9.407 0 006.82 3.46 3.31 3.31 0 015.638-3.02 6.644 6.644 0 002.1-.803 3.325 3.325 0 01-1.455 1.833 6.648 6.648 0 001.901-.524 6.711 6.711 0 01-1.65 1.714z" fill="#fff"/><defs><filter id="filter0_d" x=".6" y=".581" width="69.6" height="69.6" filterUnits="userSpaceOnUse" color-interpolation-filters="sRGB"><feFlood flood-opacity="0" result="BackgroundImageFix"/><feColorMatrix in="SourceAlpha" values="0 0 0 0 0 0 0 0 0 0 0 0 0 0 0 0 0 0 127 0"/><feOffset dy="13"/><feGaussianBlur stdDeviation="9"/><feColorMatrix values="0 0 0 0 0.0658854 0 0 0 0 0.0730469 0 0 0 0 0.1375 0 0 0 0.08 0"/><feBlend in2="BackgroundImageFix" result="effect1_dropShadow"/><feBlend in="SourceGraphic" in2="effect1_dropShadow" result="shape"/></filter></defs></svg>